<svg viewBox="0 0 122 46" fill="none" xmlns="http://www.w3.org/2000/svg">
    <path fill-rule="evenodd" clip-rule="evenodd"
          d="M10.5075 31.6984C3.8157 29.794 0 26.7458 0 23.2489C0 19.7519 3.81707 16.7037 10.5076 14.7994C8.78864 7.9956 9.4996 3.13308 12.5 1.38372C15.4435 -0.332933 20.076 1.51648 25 6.35665C29.924 1.51648 34.5565 -0.332933 37.5 1.38372C40.5004 3.13157 41.2114 7.99544 39.4925 14.7993C39.905 14.9167 40.3067 15.0385 40.6971 15.1644H39.3984H37.2337H32.0347H29.5225H28.3919C25.7385 15.0103 23.0773 15.0372 20.4266 15.245C18.6947 17.787 17.1629 20.4626 15.8453 23.2473C17.1702 26.028 18.7017 28.7031 20.4266 31.2495C22.9895 31.4483 25.495 31.4815 28.0432 31.3491H29.5105H32.0262H37.2401H39.4029H40.6476C40.2728 31.4694 39.8878 31.5858 39.4928 31.6982C41.2113 38.5005 40.5002 43.3552 37.5 45.1029C36.7384 45.5457 35.872 45.7718 34.9938 45.7541C32.2107 45.7541 28.6841 43.774 24.9976 40.139C21.3169 43.7751 17.7902 45.7557 15.0141 45.7557V45.7541C14.1344 45.7699 13.2641 45.5486 12.5 45.1045C9.49964 43.3567 8.78866 38.5001 10.5075 31.6984ZM24.9954 37.1159C26.0572 35.9478 27.063 34.7291 28.0094 33.464C27.0071 33.5129 26.0037 33.5376 25 33.5381C24.0052 33.5381 22.9968 33.5132 21.9811 33.4633C22.9275 34.7286 23.9334 35.9476 24.9954 37.1159ZM19.2644 33.2656L19.2703 33.2742L19.2778 33.2748C20.5812 35.1545 22.0063 36.9447 23.5437 38.6338C19.4672 42.6436 15.6016 44.4707 13.5422 43.2853C11.475 42.0762 11.1 37.8767 12.5328 32.2136C14.7508 32.7168 16.9998 33.0672 19.2644 33.2656ZM17.7404 30.9819C17.1993 30.132 16.6784 29.2689 16.1781 28.3935C15.6748 27.5145 15.1926 26.6234 14.7319 25.721C14.1198 27.1804 13.5779 28.6692 13.1082 30.1821C14.5757 30.5152 16.1248 30.7814 17.7404 30.9819ZM13.5383 23.2573C12.5803 25.3384 11.7579 27.4808 11.0766 29.6706C5.51094 28.0805 2.09219 25.6623 2.09219 23.2489C2.09219 20.8354 5.50938 18.4077 11.0766 16.8271C11.7565 19.0174 12.5789 21.1599 13.5383 23.2404L13.5344 23.2489L13.5383 23.2573ZM14.7315 20.7798C14.1196 19.3184 13.5771 17.828 13.1061 16.3136C14.6405 15.9688 16.1902 15.6984 17.7497 15.5032C16.6614 17.2125 15.6542 18.9734 14.7315 20.7798ZM21.9899 13.033C23.9955 12.9351 26.0045 12.9351 28.0101 13.033C27.0649 11.7694 26.0604 10.5521 25 9.38531C23.9396 10.5521 22.9351 11.7694 21.9899 13.033ZM30.7234 33.2747C29.4196 35.155 27.9941 36.9442 26.4562 38.6338C29.7031 41.8359 32.7797 43.6472 34.9844 43.6472H34.9922C35.5453 43.6472 36.0422 43.524 36.4578 43.2853C38.525 42.0746 38.9 37.8767 37.4672 32.2136C35.2487 32.7163 32.9994 33.0683 30.7344 33.2673L30.7297 33.2742L30.7234 33.2747ZM30.7297 13.2235V13.2219C32.9966 13.4261 35.2478 13.7809 37.4688 14.2841C38.9016 8.62099 38.5266 4.42151 36.4594 3.2124C34.4 2.01119 30.5266 3.8541 26.4578 7.86392C27.9933 9.55644 29.4202 11.3466 30.7297 13.2235ZM13.5406 3.2124C13.9563 2.96584 14.4531 2.85046 15.0141 2.85046C17.2188 2.85046 20.2953 4.66017 23.5422 7.86234C22.0025 9.55123 20.5754 11.3417 19.2703 13.2219C17.0034 13.4267 14.7523 13.7815 12.5313 14.2841C11.1078 8.62099 11.4734 4.42309 13.5406 3.2124Z"
          fill="white"/>
    <path d="M24 19.1591V22.2791H25.38L27.996 19.1591H30.108V19.6391L27.144 23.1791L30.108 26.7191V27.1991H27.996L25.476 24.1991H24V27.1991H21.84V19.1591H24ZM32.3541 27.1991V26.7191L35.9301 19.1591H38.0901L41.6661 26.7191V27.1991H39.7221L39.0261 25.6391H34.9821L34.2981 27.1991H32.3541ZM38.2341 23.8391L37.0101 21.0911L35.7861 23.8391H38.2341ZM50.4987 24.3191V19.1591H52.6587V27.1991H50.4987L46.2867 22.0391V27.1991H44.1267V19.1591H46.2867L50.4987 24.3191ZM64.2457 23.4911C64.2457 24.0351 64.1737 24.5471 64.0297 25.0271C63.8857 25.5071 63.6337 25.9271 63.2737 26.2871C62.9137 26.6391 62.4297 26.9191 61.8217 27.1271C61.2217 27.3351 60.4617 27.4391 59.5417 27.4391H59.1097C58.4937 27.4391 57.8857 27.4191 57.2857 27.3791C56.6857 27.3391 56.1017 27.2791 55.5337 27.1991V19.1711C56.1017 19.0831 56.6857 19.0191 57.2857 18.9791C57.8857 18.9391 58.4937 18.9191 59.1097 18.9191H59.5417C60.4617 18.9191 61.2217 19.0231 61.8217 19.2311C62.4297 19.4391 62.9137 19.7231 63.2737 20.0831C63.6337 20.4351 63.8857 20.8511 64.0297 21.3311C64.1737 21.8111 64.2457 22.3231 64.2457 22.8671V23.4911ZM59.1697 25.5431C59.8897 25.5431 60.4417 25.4871 60.8257 25.3751C61.2177 25.2551 61.5017 25.0911 61.6777 24.8831C61.8617 24.6671 61.9657 24.4151 61.9897 24.1271C62.0217 23.8391 62.0377 23.5231 62.0377 23.1791C62.0377 22.8351 62.0217 22.5191 61.9897 22.2311C61.9657 21.9431 61.8617 21.6951 61.6777 21.4871C61.5017 21.2791 61.2177 21.1191 60.8257 21.0071C60.4417 20.8871 59.8897 20.8271 59.1697 20.8271C58.9617 20.8271 58.7297 20.8311 58.4737 20.8391C58.2257 20.8471 57.9657 20.8591 57.6937 20.8751V25.4951C57.9657 25.5111 58.2257 25.5231 58.4737 25.5311C58.7297 25.5391 58.9617 25.5431 59.1697 25.5431ZM66.1064 27.1991V26.7191L69.6824 19.1591H71.8424L75.4184 26.7191V27.1991H73.4744L72.7784 25.6391H68.7344L68.0504 27.1991H66.1064ZM71.9864 23.8391L70.7624 21.0911L69.5384 23.8391H71.9864ZM79.134 24.2111L75.99 19.6391V19.1591H78.114L80.214 22.4951L82.326 19.1591H84.438V19.6391L81.294 24.2111V27.1991H79.134V24.2111ZM90.4545 25.5191C90.8865 25.5191 91.2225 25.4991 91.4625 25.4591C91.7105 25.4111 91.8945 25.3551 92.0145 25.2911C92.1425 25.2191 92.2225 25.1431 92.2545 25.0631C92.2865 24.9751 92.3025 24.8951 92.3025 24.8231C92.3025 24.6791 92.2665 24.5671 92.1945 24.4871C92.1305 24.3991 92.0225 24.3311 91.8705 24.2831C91.7265 24.2351 91.5305 24.2031 91.2825 24.1871C91.0425 24.1631 90.7505 24.1471 90.4065 24.1391C90.2065 24.1311 89.9705 24.1191 89.6985 24.1031C89.4265 24.0871 89.1465 24.0551 88.8585 24.0071C88.5705 23.9511 88.2865 23.8751 88.0065 23.7791C87.7265 23.6751 87.4745 23.5351 87.2505 23.3591C87.0345 23.1751 86.8585 22.9471 86.7225 22.6751C86.5865 22.4031 86.5185 22.0711 86.5185 21.6791V21.5231C86.5185 21.1791 86.5785 20.8511 86.6985 20.5391C86.8265 20.2191 87.0385 19.9391 87.3345 19.6991C87.6385 19.4591 88.0425 19.2711 88.5465 19.1351C89.0585 18.9911 89.6945 18.9191 90.4545 18.9191H90.8865C91.4385 18.9191 91.9745 18.9551 92.4945 19.0271C93.0145 19.0911 93.5225 19.1871 94.0185 19.3151V21.2951C93.4345 21.1591 92.8545 21.0511 92.2785 20.9711C91.7105 20.8911 91.1305 20.8511 90.5385 20.8511C90.1065 20.8511 89.7665 20.8751 89.5185 20.9231C89.2705 20.9631 89.0825 21.0191 88.9545 21.0911C88.8345 21.1551 88.7585 21.2271 88.7265 21.3071C88.6945 21.3791 88.6785 21.4511 88.6785 21.5231C88.6785 21.6671 88.7105 21.7831 88.7745 21.8711C88.8465 21.9591 88.9585 22.0271 89.1105 22.0751C89.2625 22.1231 89.4585 22.1591 89.6985 22.1831C89.9385 22.1991 90.2265 22.2111 90.5625 22.2191C90.7545 22.2271 90.9825 22.2391 91.2465 22.2551C91.5105 22.2631 91.7865 22.2951 92.0745 22.3511C92.3705 22.3991 92.6585 22.4751 92.9385 22.5791C93.2265 22.6831 93.4825 22.8271 93.7065 23.0111C93.9305 23.1871 94.1105 23.4151 94.2465 23.6951C94.3905 23.9671 94.4625 24.2991 94.4625 24.6911V24.8471C94.4625 25.1911 94.3985 25.5191 94.2705 25.8311C94.1505 26.1431 93.9385 26.4191 93.6345 26.6591C93.3305 26.8991 92.9265 27.0871 92.4225 27.2231C91.9185 27.3671 91.2825 27.4391 90.5145 27.4391H90.0825C89.4505 27.4391 88.8345 27.4031 88.2345 27.3311C87.6425 27.2671 87.0585 27.1751 86.4825 27.0551V25.0391C87.1305 25.1831 87.7985 25.2991 88.4865 25.3871C89.1825 25.4751 89.8385 25.5191 90.4545 25.5191ZM99.0244 21.2351C99.3044 21.1471 99.5964 21.0791 99.9004 21.0311C100.204 20.9831 100.536 20.9591 100.896 20.9591C101.568 20.9591 102.124 21.0391 102.564 21.1991C103.004 21.3511 103.356 21.5631 103.62 21.8351C103.884 22.1071 104.068 22.4271 104.172 22.7951C104.276 23.1551 104.328 23.5431 104.328 23.9591V24.4391C104.328 24.8551 104.276 25.2471 104.172 25.6151C104.068 25.9751 103.884 26.2911 103.62 26.5631C103.356 26.8351 103 27.0471 102.552 27.1991C102.112 27.3591 101.552 27.4391 100.872 27.4391H100.536C99.8644 27.4391 99.3084 27.3591 98.8684 27.1991C98.4284 27.0471 98.0764 26.8351 97.8124 26.5631C97.5484 26.2911 97.3644 25.9751 97.2604 25.6151C97.1564 25.2471 97.1044 24.8551 97.1044 24.4391V18.1991H97.5844L99.0244 19.0391V21.2351ZM100.788 22.6991C100.452 22.6991 100.14 22.7231 99.8524 22.7711C99.5644 22.8111 99.2884 22.8751 99.0244 22.9631V24.1991C99.0244 24.3911 99.0324 24.5791 99.0484 24.7631C99.0644 24.9471 99.1244 25.1071 99.2284 25.2431C99.3404 25.3791 99.5084 25.4911 99.7324 25.5791C99.9564 25.6591 100.28 25.6991 100.704 25.6991C101.128 25.6991 101.456 25.6591 101.688 25.5791C101.92 25.4911 102.088 25.3791 102.192 25.2431C102.304 25.1071 102.368 24.9471 102.384 24.7631C102.4 24.5791 102.408 24.3911 102.408 24.1991C102.408 24.0071 102.4 23.8191 102.384 23.6351C102.368 23.4511 102.308 23.2911 102.204 23.1551C102.1 23.0191 101.94 22.9111 101.724 22.8311C101.508 22.7431 101.196 22.6991 100.788 22.6991ZM107.565 18.1991L109.005 19.0391V27.1991H107.085V18.1991H107.565ZM118.254 24.3191V19.1591H120.414V27.1991H118.254L114.042 22.0391V27.1991H111.882V19.1591H114.042L118.254 24.3191Z"
          fill="white"/>
</svg>
